<svg version="1.1" viewBox="0 0 512 512" xmlns="http://www.w3.org/2000/svg" xmlns:xlink="http://www.w3.org/1999/xlink" overflow="hidden"><path d=" M 504 256 C 504 393 393 504 256 504 C 119 504 8 393 8 256 C 8 119 119 8 256 8 C 393 8 504 119 504 256 Z M 360.4 227.1 L 288 302.6 L 288 120 C 288 106.7 277.3 96 264 96 L 248 96 C 234.7 96 224 106.7 224 120 L 224 302.6 L 151.6 227.1 C 142.3 217.4 126.8 217.2 117.3 226.7 L 106.4 237.7 C 97 247.1 97 262.3 106.4 271.6 L 239 404.3 C 248.4 413.7 263.6 413.7 272.9 404.3 L 405.6 271.6 C 415 262.2 415 247 405.6 237.7 L 394.7 226.7 C 385.2 217.2 369.7 217.4 360.4 227.1 Z" stroke="none" stroke-width="1" stroke-linecap="butt" fill="#FFFFFF" fill-opacity="1"/></svg>